<?xml version="1.0" encoding="UTF-8"?>
<svg version="1.1" xmlns="http://www.w3.org/2000/svg" width="800" height="600">
<path d="M0 0 C264 0 528 0 800 0 C800 198 800 396 800 600 C536 600 272 600 0 600 C0 402 0 204 0 0 Z " fill="#004AAD" transform="translate(0,0)"/>
<path d="M0 0 C3.67059038 1.61124743 5.42947041 3.70225358 7.92932129 6.82507324 C11.10611067 10.6039185 14.28827315 14.35609006 19.24755859 15.53369141 C24.41441213 15.87701453 29.56029212 15.26538919 34.70077515 14.7512207 C56.20385122 12.82139435 56.20385122 12.82139435 64.43896484 18.8203125 C69.94415134 23.52874516 74.48791084 29.06455562 79.11987305 34.60424805 C86.08609193 43.12870286 86.08609193 43.12870286 96.1015625 47.14453125 C101.82226567 47.56185689 107.38875432 47.18607224 113 46 C112.87842529 46.57516357 112.75685059 47.15032715 112.6315918 47.74291992 C111.30540201 55.37281698 110.99424395 62.74817592 114 70 C117.50047089 74.4621711 122.10238199 77.96244389 126.4331665 81.58355713 C143.41307336 95.78755033 143.41307336 95.78755033 144.47132874 107.00650024 C144.7319444 113.68594873 144.37119847 120.2960432 143.98999023 126.96337891 C143.11696963 138.21738821 143.11696963 138.21738821 147.515625 148.3046875 C151.23298404 152.29755831 155.2797511 155.29131151 160 158 C159.21625 158.94875 158.4325 159.8975 157.625 160.875 C157.08963623 161.52895752 156.55427246 162.18291504 156.00268555 162.85668945 C154 165 154 165 151.35083008 166.97729492 C146.11789842 171.08097416 146.11789842 171.08097416 143.6473999 177.07086182 C143.47749101 182.21818248 144.03829269 187.34971006 144.47509766 192.47445679 C145.32173932 203.78697618 146.17802517 215.42360759 138.42703247 224.48590088 C134.03141913 229.03973371 129.24630187 233.06397522 124.39648438 237.11914062 C115.87160846 244.08570915 115.87160846 244.08570915 111.85546875 254.1015625 C111.43814311 259.82226567 111.81392776 265.38875432 113 271 C112.42483643 270.87842529 111.84967285 270.75685059 111.25708008 270.6315918 C103.62718302 269.30540201 96.25182408 268.99424395 89 272 C84.53773717 275.50054285 81.03736296 280.10257187 77.41616821 284.43344116 C63.21872652 301.40595699 63.21872652 301.40595699 51.9690094 302.49517822 C45.29306076 302.78118658 38.77528358 302.52992593 32.13549805 301.79882812 C21.55912743 300.63550986 21.55912743 300.63550986 12.37792969 305.30957031 C8.56424196 308.9135006 5.17050039 312.82290375 2 317 C-1.67059038 315.38875257 -3.42947041 313.29774642 -5.92932129 310.17492676 C-9.10611067 306.3960815 -12.28827315 302.64390994 -17.24755859 301.46630859 C-22.41441213 301.12298547 -27.56029212 301.73461081 -32.70077515 302.2487793 C-54.20385122 304.17860565 -54.20385122 304.17860565 -62.43896484 298.1796875 C-67.94415134 293.47125484 -72.48791084 287.93544438 -77.11987305 282.39575195 C-84.08609193 273.87129714 -84.08609193 273.87129714 -94.1015625 269.85546875 C-99.82226567 269.43814311 -105.38875432 269.81392776 -111 271 C-110.87842529 270.42483643 -110.75685059 269.84967285 -110.6315918 269.25708008 C-109.30540201 261.62718302 -108.99424395 254.25182408 -112 247 C-115.50047089 242.5378289 -120.10238199 239.03755611 -124.4331665 235.41644287 C-141.41307336 221.21244967 -141.41307336 221.21244967 -142.47132874 209.99349976 C-142.7319444 203.31405127 -142.37119847 196.7039568 -141.98999023 190.03662109 C-141.11696963 178.78261179 -141.11696963 178.78261179 -145.515625 168.6953125 C-149.23298404 164.70244169 -153.2797511 161.70868849 -158 159 C-157.21625 158.05125 -156.4325 157.1025 -155.625 156.125 C-154.82195435 155.14406372 -154.82195435 155.14406372 -154.00268555 154.14331055 C-152 152 -152 152 -149.35083008 150.02270508 C-144.11789842 145.91902584 -144.11789842 145.91902584 -141.6473999 139.92913818 C-141.47749101 134.78181752 -142.03829269 129.65028994 -142.47509766 124.52554321 C-143.32173932 113.21302382 -144.17802517 101.57639241 -136.42703247 92.51409912 C-132.03141913 87.96026629 -127.24630187 83.93602478 -122.39648438 79.88085938 C-113.87160846 72.91429085 -113.87160846 72.91429085 -109.85546875 62.8984375 C-109.43814311 57.17773433 -109.81392776 51.61124568 -111 46 C-110.13725464 46.18236206 -110.13725464 46.18236206 -109.25708008 46.3684082 C-101.62718302 47.69459799 -94.25182408 48.00575605 -87 45 C-82.53773717 41.49945715 -79.03736296 36.89742813 -75.41616821 32.56655884 C-61.21872652 15.59404301 -61.21872652 15.59404301 -49.9690094 14.50482178 C-43.29306076 14.21881342 -36.77528358 14.47007407 -30.13549805 15.20117188 C-19.55912743 16.36449014 -19.55912743 16.36449014 -10.37792969 11.69042969 C-6.56424196 8.0864994 -3.17050039 4.17709625 0 0 Z " fill="#014BAD" transform="translate(399,118)"/>
<path d="M0 0 C3.67059038 1.61124743 5.42947041 3.70225358 7.92932129 6.82507324 C11.10611067 10.6039185 14.28827315 14.35609006 19.24755859 15.53369141 C24.41441213 15.87701453 29.56029212 15.26538919 34.70077515 14.7512207 C56.20385122 12.82139435 56.20385122 12.82139435 64.43896484 18.8203125 C69.94415134 23.52874516 74.48791084 29.06455562 79.11987305 34.60424805 C86.08609193 43.12870286 86.08609193 43.12870286 96.1015625 47.14453125 C101.82226567 47.56185689 107.38875432 47.18607224 113 46 C112.87842529 46.57516357 112.75685059 47.15032715 112.6315918 47.74291992 C111.30540201 55.37281698 110.99424395 62.74817592 114 70 C117.50047089 74.4621711 122.10238199 77.96244389 126.4331665 81.58355713 C143.41307336 95.78755033 143.41307336 95.78755033 144.47132874 107.00650024 C144.7319444 113.68594873 144.37119847 120.2960432 143.98999023 126.96337891 C143.11696963 138.21738821 143.11696963 138.21738821 147.515625 148.3046875 C151.23298404 152.29755831 155.2797511 155.29131151 160 158 C159.21625 158.94875 158.4325 159.8975 157.625 160.875 C157.08963623 161.52895752 156.55427246 162.18291504 156.00268555 162.85668945 C154 165 154 165 151.35083008 166.97729492 C146.11789842 171.08097416 146.11789842 171.08097416 143.6473999 177.07086182 C143.47749101 182.21818248 144.03829269 187.34971006 144.47509766 192.47445679 C145.32173932 203.78697618 146.17802517 215.42360759 138.42703247 224.48590088 C134.03141913 229.03973371 129.24630187 233.06397522 124.39648438 237.11914062 C115.87160846 244.08570915 115.87160846 244.08570915 111.85546875 254.1015625 C111.43814311 259.82226567 111.81392776 265.38875432 113 271 C112.42483643 270.87842529 111.84967285 270.75685059 111.25708008 270.6315918 C103.62718302 269.30540201 96.25182408 268.99424395 89 272 C84.53773717 275.50054285 81.03736296 280.10257187 77.41616821 284.43344116 C63.21872652 301.40595699 63.21872652 301.40595699 51.9690094 302.49517822 C45.29306076 302.78118658 38.77528358 302.52992593 32.13549805 301.79882812 C21.55912743 300.63550986 21.55912743 300.63550986 12.37792969 305.30957031 C8.56424196 308.9135006 5.17050039 312.82290375 2 317 C-1.67059038 315.38875257 -3.42947041 313.29774642 -5.92932129 310.17492676 C-9.10611067 306.3960815 -12.28827315 302.64390994 -17.24755859 301.46630859 C-22.41441213 301.12298547 -27.56029212 301.73461081 -32.70077515 302.2487793 C-54.20385122 304.17860565 -54.20385122 304.17860565 -62.43896484 298.1796875 C-67.94415134 293.47125484 -72.48791084 287.93544438 -77.11987305 282.39575195 C-84.08609193 273.87129714 -84.08609193 273.87129714 -94.1015625 269.85546875 C-99.82226567 269.43814311 -105.38875432 269.81392776 -111 271 C-110.87842529 270.42483643 -110.75685059 269.84967285 -110.6315918 269.25708008 C-109.30540201 261.62718302 -108.99424395 254.25182408 -112 247 C-115.50047089 242.5378289 -120.10238199 239.03755611 -124.4331665 235.41644287 C-141.41307336 221.21244967 -141.41307336 221.21244967 -142.47132874 209.99349976 C-142.7319444 203.31405127 -142.37119847 196.7039568 -141.98999023 190.03662109 C-141.11696963 178.78261179 -141.11696963 178.78261179 -145.515625 168.6953125 C-149.23298404 164.70244169 -153.2797511 161.70868849 -158 159 C-157.21625 158.05125 -156.4325 157.1025 -155.625 156.125 C-154.82195435 155.14406372 -154.82195435 155.14406372 -154.00268555 154.14331055 C-152 152 -152 152 -149.35083008 150.02270508 C-144.11789842 145.91902584 -144.11789842 145.91902584 -141.6473999 139.92913818 C-141.47749101 134.78181752 -142.03829269 129.65028994 -142.47509766 124.52554321 C-143.32173932 113.21302382 -144.17802517 101.57639241 -136.42703247 92.51409912 C-132.03141913 87.96026629 -127.24630187 83.93602478 -122.39648438 79.88085938 C-113.87160846 72.91429085 -113.87160846 72.91429085 -109.85546875 62.8984375 C-109.43814311 57.17773433 -109.81392776 51.61124568 -111 46 C-110.13725464 46.18236206 -110.13725464 46.18236206 -109.25708008 46.3684082 C-101.62718302 47.69459799 -94.25182408 48.00575605 -87 45 C-82.53773717 41.49945715 -79.03736296 36.89742813 -75.41616821 32.56655884 C-61.21872652 15.59404301 -61.21872652 15.59404301 -49.9690094 14.50482178 C-43.29306076 14.21881342 -36.77528358 14.47007407 -30.13549805 15.20117188 C-19.55912743 16.36449014 -19.55912743 16.36449014 -10.37792969 11.69042969 C-6.56424196 8.0864994 -3.17050039 4.17709625 0 0 Z M-104.89176941 111.43386078 C-117.00831433 139.49006261 -116.92508911 174.5987612 -106 203 C-94.32764017 230.02767872 -71.04900791 253.35674778 -44 265 C-15.35029041 275.95641745 20.28080411 276.07083431 48.58204651 263.88855743 C75.06927777 251.39155234 98.42646098 227.88770254 109.00617981 200.38430023 C118.97318879 171.63149481 118.81696395 136.66526653 105.6986084 108.90936279 C92.39136376 82.80138768 68.66573975 59.69675152 40.6854248 50.07037354 C-16.98173069 32.1187155 -78.70653482 56.03096763 -104.89176941 111.43386078 Z " fill="#FAFCFD" transform="translate(399,118)"/>
<path d="M0 0 C0.87454834 0.00523682 1.74909668 0.01047363 2.65014648 0.01586914 C3.59438477 0.0190918 4.53862305 0.02231445 5.51147461 0.02563477 C6.50469727 0.03401367 7.49791992 0.04239258 8.52124023 0.05102539 C9.51833008 0.05553711 10.51541992 0.06004883 11.54272461 0.06469727 C14.01478872 0.07652532 16.48673541 0.0930069 18.95874023 0.11352539 C18.95874023 2.42352539 18.95874023 4.73352539 18.95874023 7.11352539 C17.30874023 7.77352539 15.65874023 8.43352539 13.95874023 9.11352539 C13.95874023 25.28352539 13.95874023 41.45352539 13.95874023 58.11352539 C16.26874023 58.11352539 18.57874023 58.11352539 20.95874023 58.11352539 C20.95874023 60.42352539 20.95874023 62.73352539 20.95874023 65.11352539 C12.37874023 65.11352539 3.79874023 65.11352539 -5.04125977 65.11352539 C-5.04125977 63.13352539 -5.04125977 61.15352539 -5.04125977 59.11352539 C-3.39125977 58.45352539 -1.74125977 57.79352539 -0.04125977 57.11352539 C-0.01628248 53.14828469 0.00172963 49.18307534 0.01367188 45.21777344 C0.02109127 43.21621081 0.03380683 41.21467006 0.04663086 39.21313477 C0.04985352 37.93374023 0.05307617 36.6543457 0.05639648 35.33618164 C0.0616333 34.16837158 0.06687012 33.00056152 0.07226562 31.79736328 C-0.05925199 27.52968746 -0.50967787 23.34715648 -1.04125977 19.11352539 C-1.25201645 19.6728476 -1.46277313 20.2321698 -1.67991638 20.80844116 C-3.86849552 26.61602502 -6.0585652 32.42304517 -8.24951172 38.22973633 C-9.06760497 40.39853648 -9.88531466 42.56748136 -10.70263672 44.73657227 C-11.87570632 47.84958171 -13.05014245 50.96207256 -14.22485352 54.07446289 C-14.59154648 55.04846039 -14.95823944 56.02245789 -15.33604431 57.02597046 C-15.67632156 57.92675323 -16.01659882 58.82753601 -16.3671875 59.75561523 C-16.66697006 60.55059418 -16.96675262 61.34557312 -17.27561951 62.16464233 C-18.04125977 64.11352539 -18.04125977 64.11352539 -19.04125977 66.11352539 C-22.01125977 66.11352539 -24.98125977 66.11352539 -28.04125977 66.11352539 C-30.30739006 60.65325951 -32.5675534 55.19057662 -34.82226562 49.72558594 C-35.58984211 47.86749019 -36.35903386 46.01006083 -37.12988281 44.15332031 C-38.23873219 41.4816439 -39.34171672 38.80761088 -40.44360352 36.13305664 C-40.7884227 35.30578568 -41.13324188 34.47851471 -41.48851013 33.62617493 C-41.80876663 32.84574326 -42.12902313 32.06531158 -42.45898438 31.26123047 C-42.74100204 30.57950272 -43.02301971 29.89777496 -43.31358337 29.19538879 C-44.04125977 27.11352539 -44.04125977 27.11352539 -45.04125977 22.11352539 C-45.37125977 33.99352539 -45.70125977 45.87352539 -46.04125977 58.11352539 C-44.06125977 58.11352539 -42.08125977 58.11352539 -40.04125977 58.11352539 C-40.04125977 60.42352539 -40.04125977 62.73352539 -40.04125977 65.11352539 C-46.97125977 65.11352539 -53.90125977 65.11352539 -61.04125977 65.11352539 C-61.04125977 63.13352539 -61.04125977 61.15352539 -61.04125977 59.11352539 C-60.23688477 58.82477539 -59.43250977 58.53602539 -58.60375977 58.23852539 C-55.90861297 57.38089971 -55.90861297 57.38089971 -55.04125977 55.11352539 C-54.92303005 53.57210365 -54.86426166 52.02591442 -54.8359375 50.48022461 C-54.80601967 49.03895706 -54.80601967 49.03895706 -54.77549744 47.568573 C-54.7504287 46.00914474 -54.7504287 46.00914474 -54.72485352 44.41821289 C-54.70407242 43.35563263 -54.68329132 42.29305237 -54.66188049 41.19827271 C-54.59635716 37.79509101 -54.53748703 34.3918305 -54.47875977 30.98852539 C-54.4355772 28.68513174 -54.391963 26.38174613 -54.34790039 24.07836914 C-54.24067295 18.42350519 -54.13891174 12.76856236 -54.04125977 7.11352539 C-56.02125977 7.11352539 -58.00125977 7.11352539 -60.04125977 7.11352539 C-60.04125977 5.13352539 -60.04125977 3.15352539 -60.04125977 1.11352539 C-53.11125977 1.11352539 -46.18125977 1.11352539 -39.04125977 1.11352539 C-37.34356445 5.57432617 -37.34356445 5.57432617 -35.61157227 10.12524414 C-34.51287742 13.01126883 -33.41403844 15.89723861 -32.31518555 18.78320312 C-31.55266496 20.78607541 -30.7902938 22.78900459 -30.02807617 24.79199219 C-28.93130314 27.67406003 -27.83398966 30.5559216 -26.73657227 33.43774414 C-26.39691437 34.33063644 -26.05725647 35.22352875 -25.70730591 36.14347839 C-24.18247477 40.14625005 -22.65188356 44.14423252 -21.04125977 48.11352539 C-16.41423069 37.38615155 -12.4142389 26.44904946 -8.39624023 15.48339844 C-7.53535458 13.1366232 -6.67123547 10.79105738 -5.80688477 8.44555664 C-5.41161591 7.36139214 -5.41161591 7.36139214 -5.00836182 6.25532532 C-2.75852869 0.15341656 -2.75852869 0.15341656 0 0 Z " fill="#36B2FC" transform="translate(452.041259765625,244.886474609375)"/>
<path d="M0 0 C4.80137245 -0.09978872 9.60212521 -0.17189617 14.40429688 -0.21972656 C16.03363578 -0.23969079 17.66290445 -0.2668723 19.29199219 -0.30175781 C30.14322498 -0.52810255 38.53140565 -0.12889001 47.9375 5.875 C51.53200844 9.57843294 52.84945979 12.68814959 53.4375 17.8125 C53.18089381 23.88940114 50.83350154 29.21233599 46.5 33.4375 C40.8 37 40.8 37 37 37 C37 37.66 37 38.32 37 39 C37.86625 39.33064453 37.86625 39.33064453 38.75 39.66796875 C41.6963343 41.41223958 43.05540911 43.5057565 45 46.3125 C49.82980141 53.96903568 49.82980141 53.96903568 57 59 C57 60.98 57 62.96 57 65 C54.62119979 65.19066719 52.25780356 65.32817662 49.875 65.4375 C48.87726563 65.52547852 48.87726563 65.52547852 47.859375 65.61523438 C44.95270568 65.71497303 42.67237595 65.52689283 40.34472656 63.70288086 C36.04741306 58.88044721 32.9277031 53.13560118 29.7890625 47.52148438 C29.38429688 46.83763672 28.97953125 46.15378906 28.5625 45.44921875 C28.21316406 44.83393311 27.86382812 44.21864746 27.50390625 43.5847168 C25.6198305 41.35054979 25.6198305 41.35054979 20 40 C20 45.94 20 51.88 20 58 C22.64 58 25.28 58 28 58 C28 60.31 28 62.62 28 65 C18.76 65 9.52 65 0 65 C0 63.02 0 61.04 0 59 C0.804375 58.731875 1.60875 58.46375 2.4375 58.1875 C3.7059375 57.5996875 3.7059375 57.5996875 5 57 C5.9465414 54.16037579 6.14994224 52.29593471 6.20532227 49.3449707 C6.22526749 48.40422195 6.24521271 47.46347321 6.26576233 46.49421692 C6.29083107 44.97534126 6.29083107 44.97534126 6.31640625 43.42578125 C6.33718735 42.38681198 6.35796844 41.34784271 6.37937927 40.27738953 C6.44480656 36.95582747 6.50372821 33.63418584 6.5625 30.3125 C6.60569169 28.0618407 6.64930619 25.81118948 6.69335938 23.56054688 C6.80048098 18.0404489 6.90226016 12.52027163 7 7 C4.69 7 2.38 7 0 7 C0 4.69 0 2.38 0 0 Z " fill="#36B3FD" transform="translate(328,245)"/>
<path d="M0 0 C9.91713002 8.50039716 9.91713002 8.50039716 10.42132568 11.54006958 C10.44180969 12.55439056 10.4622937 13.56871155 10.48339844 14.61376953 C10.51222107 15.76571808 10.5410437 16.91766663 10.57073975 18.10452271 C10.58348938 19.35135834 10.59623901 20.59819397 10.609375 21.8828125 C10.62647522 23.16678925 10.64357544 24.45076599 10.66119385 25.77365112 C10.69270519 28.49562123 10.71024138 31.21732633 10.72070312 33.93945312 C10.73709289 37.40730532 10.80901247 40.87158327 10.89461899 44.33831978 C10.9644045 47.66557265 10.9698746 50.99236676 10.984375 54.3203125 C11.03993561 56.17234787 11.03993561 56.17234787 11.09661865 58.0617981 C11.04462969 64.82286315 10.33496201 68.43873226 5.50097656 73.35498047 C1.32880162 77 1.32880162 77 0 77 C0 51.59 0 26.18 0 0 Z " fill="#0E54B1" transform="translate(512,238)"/>
<path d="M0 0 C0 25.41 0 50.82 0 77 C-9.91713002 68.49960284 -9.91713002 68.49960284 -10.42132568 65.45993042 C-10.4520517 63.93844894 -10.4520517 63.93844894 -10.48339844 62.38623047 C-10.51222107 61.23428192 -10.5410437 60.08233337 -10.57073975 58.89547729 C-10.58348938 57.64864166 -10.59623901 56.40180603 -10.609375 55.1171875 C-10.62647522 53.83321075 -10.64357544 52.54923401 -10.66119385 51.22634888 C-10.69270519 48.50437877 -10.71024138 45.78267367 -10.72070312 43.06054688 C-10.73709289 39.59269468 -10.80901247 36.12841673 -10.89461899 32.66168022 C-10.9644045 29.33442735 -10.9698746 26.00763324 -10.984375 22.6796875 C-11.02141541 21.44499725 -11.05845581 20.21030701 -11.09661865 18.9382019 C-11.04462969 12.17713685 -10.33496201 8.56126774 -5.50097656 3.64501953 C-1.32880162 0 -1.32880162 0 0 0 Z " fill="#0F55B2" transform="translate(288,238)"/>
<path d="M0 0 C25.08 0 50.16 0 76 0 C67.50086237 9.91566057 67.50086237 9.91566057 64.49789429 10.42132568 C63.00306015 10.4520517 63.00306015 10.4520517 61.47802734 10.48339844 C60.34609955 10.51222107 59.21417175 10.5410437 58.04794312 10.57073975 C56.82298126 10.58348938 55.59801941 10.59623901 54.3359375 10.609375 C53.0741568 10.62647522 51.8123761 10.64357544 50.51235962 10.66119385 C47.83717424 10.68956518 45.16299956 10.71024027 42.48779297 10.72070312 C39.08044679 10.73709141 35.67673929 10.80900702 32.27052879 10.89461899 C29.00094609 10.96441305 25.73116031 10.96987659 22.4609375 10.984375 C21.24812103 11.02141541 20.03530457 11.05845581 18.78573608 11.09661865 C12.07836232 11.0441453 8.53225491 10.29345844 3.65869141 5.50097656 C0 1.32473231 0 1.32473231 0 0 Z " fill="#074FAF" transform="translate(362,389)"/>
<path d="M0 0 C1.1319278 -0.02882263 2.26385559 -0.05764526 3.43008423 -0.08734131 C4.65504608 -0.10009094 5.88000793 -0.11284058 7.14208984 -0.12597656 C8.40387054 -0.14307678 9.66565125 -0.160177 10.96566772 -0.17779541 C13.64085311 -0.20616674 16.31502778 -0.22684183 18.99023438 -0.23730469 C22.39758056 -0.25369297 25.80128805 -0.32560858 29.20749855 -0.41122055 C32.47708126 -0.48101461 35.74686703 -0.48647815 39.01708984 -0.50097656 C40.83631454 -0.55653717 40.83631454 -0.55653717 42.69229126 -0.61322021 C49.39966502 -0.56074686 52.94577243 0.18993999 57.81933594 4.98242188 C61.47802734 9.15866613 61.47802734 9.15866613 61.47802734 10.48339844 C36.39802734 10.48339844 11.31802734 10.48339844 -14.52197266 10.48339844 C-5.63549089 0.11583637 -5.63549089 0.11583637 0 0 Z " fill="#074FAF" transform="translate(376.52197265625,153.5166015625)"/>
<path d="M0 0 C1.24456747 11.60405769 1.24456747 11.60405769 -1.456604 16.80413818 C-3.58507893 19.4281166 -5.82759539 21.7698438 -8.2578125 24.1171875 C-9.11245087 24.98522003 -9.96708923 25.85325256 -10.84762573 26.74758911 C-12.65485225 28.56429657 -14.47969831 30.36362818 -16.32080078 32.14599609 C-19.11919467 34.86935034 -21.83490088 37.65946669 -24.55078125 40.46484375 C-26.32365394 42.22846427 -28.10086513 43.98773645 -29.8828125 45.7421875 C-30.68550568 46.57321991 -31.48819885 47.40425232 -32.31521606 48.26046753 C-37.34649088 53.01412418 -40.62245258 54.49772334 -47.63232422 54.51611328 C-49.75780421 54.38501494 -51.88262424 54.22709444 -54 54 C-48.75498729 47.64479753 -42.99520535 41.84907585 -37.16796875 36.03515625 C-36.12504228 34.9915551 -35.08226421 33.94780563 -34.03962708 32.90391541 C-31.86861311 30.73143614 -29.69582299 28.56075375 -27.52172852 26.39135742 C-24.72947079 23.60483918 -21.94178413 20.81379755 -19.15537548 18.02143192 C-17.01000369 15.87245923 -14.86227171 13.7258582 -12.71380043 11.57998466 C-11.68396843 10.55082104 -10.65488232 9.5209105 -9.62654686 8.49025154 C-8.19769769 7.05887903 -6.76532304 5.63102836 -5.33276367 4.20336914 C-4.51813156 3.38953262 -3.70349945 2.57569611 -2.86418152 1.73719788 C-1 0 -1 0 0 0 Z " fill="#084FAF" transform="translate(507,329)"/>
<path d="M0 0 C6.35520247 5.24501271 12.15092415 11.00479465 17.96484375 16.83203125 C19.0084449 17.87495772 20.05219437 18.91773579 21.09608459 19.96037292 C23.26856386 22.13138689 25.43924625 24.30417701 27.60864258 26.47827148 C30.39516082 29.27052921 33.18620245 32.05821587 35.97856808 34.84462452 C38.12754077 36.98999631 40.2741418 39.13772829 42.42001534 41.28619957 C43.44917896 42.31603157 44.4790895 43.34511768 45.50974846 44.37345314 C46.94112097 45.80230231 48.36897164 47.23467696 49.79663086 48.66723633 C50.61046738 49.48186844 51.42430389 50.29650055 52.26280212 51.13581848 C54 53 54 53 54 54 C42.39594231 55.24456747 42.39594231 55.24456747 37.19586182 52.543396 C34.5718834 50.41492107 32.2301562 48.17240461 29.8828125 45.7421875 C29.01477997 44.88754913 28.14674744 44.03291077 27.25241089 43.15237427 C25.43570343 41.34514775 23.63637182 39.52030169 21.85400391 37.67919922 C19.13064966 34.88080533 16.34053331 32.16509912 13.53515625 29.44921875 C11.77153573 27.67634606 10.01226355 25.89913487 8.2578125 24.1171875 C7.42678009 23.31449432 6.59574768 22.51180115 5.73953247 21.68478394 C0.98587582 16.65350912 -0.49772334 13.37754742 -0.51611328 6.36767578 C-0.38501494 4.24219579 -0.22709444 2.11737576 0 0 Z " fill="#0850AF" transform="translate(293,329)"/>
<path d="M0 0 C11.60405769 -1.24456747 11.60405769 -1.24456747 16.80413818 1.456604 C19.4281166 3.58507893 21.7698438 5.82759539 24.1171875 8.2578125 C24.98522003 9.11245087 25.85325256 9.96708923 26.74758911 10.84762573 C28.56429657 12.65485225 30.36362818 14.47969831 32.14599609 16.32080078 C34.86935034 19.11919467 37.65946669 21.83490088 40.46484375 24.55078125 C42.22846427 26.32365394 43.98773645 28.10086513 45.7421875 29.8828125 C46.98873611 31.08685226 46.98873611 31.08685226 48.26046753 32.31521606 C53.01412418 37.34649088 54.49772334 40.62245258 54.51611328 47.63232422 C54.38501494 49.75780421 54.22709444 51.88262424 54 54 C47.64479753 48.75498729 41.84907585 42.99520535 36.03515625 37.16796875 C34.9915551 36.12504228 33.94780563 35.08226421 32.90391541 34.03962708 C30.73143614 31.86861311 28.56075375 29.69582299 26.39135742 27.52172852 C23.60483918 24.72947079 20.81379755 21.94178413 18.02143192 19.15537548 C15.87245923 17.01000369 13.7258582 14.86227171 11.57998466 12.71380043 C10.55082104 11.68396843 9.5209105 10.65488232 8.49025154 9.62654686 C7.05887903 8.19769769 5.63102836 6.76532304 4.20336914 5.33276367 C3.38953262 4.51813156 2.57569611 3.70349945 1.73719788 2.86418152 C0 1 0 1 0 0 Z " fill="#084FAF" transform="translate(453,170)"/>
<path d="M0 0 C-5.24501271 6.35520247 -11.00479465 12.15092415 -16.83203125 17.96484375 C-17.87495772 19.0084449 -18.91773579 20.05219437 -19.96037292 21.09608459 C-22.13138689 23.26856386 -24.30417701 25.43924625 -26.47827148 27.60864258 C-29.27052921 30.39516082 -32.05821587 33.18620245 -34.84462452 35.97856808 C-36.98999631 38.12754077 -39.13772829 40.2741418 -41.28619957 42.42001534 C-42.31603157 43.44917896 -43.34511768 44.4790895 -44.37345314 45.50974846 C-45.80230231 46.94112097 -47.23467696 48.36897164 -48.66723633 49.79663086 C-49.48186844 50.61046738 -50.29650055 51.42430389 -51.13581848 52.26280212 C-53 54 -53 54 -54 54 C-55.24456747 42.39594231 -55.24456747 42.39594231 -52.543396 37.19586182 C-50.41492107 34.5718834 -48.17240461 32.2301562 -45.7421875 29.8828125 C-44.88754913 29.01477997 -44.03291077 28.14674744 -43.15237427 27.25241089 C-41.34514775 25.43570343 -39.52030169 23.63637182 -37.67919922 21.85400391 C-34.88080533 19.13064966 -32.16509912 16.34053331 -29.44921875 13.53515625 C-27.67634606 11.77153573 -25.89913487 10.01226355 -24.1171875 8.2578125 C-23.31449432 7.42678009 -22.51180115 6.59574768 -21.68478394 5.73953247 C-14.86522493 -0.70373355 -9.14966747 -0.98132729 0 0 Z " fill="#074FAF" transform="translate(347,170)"/>
<path d="M0 0 C2.9921875 0.3828125 2.9921875 0.3828125 5.125 0.875 C4.27421875 1.84566406 3.4234375 2.81632812 2.546875 3.81640625 C0.1915091 6.53714178 -1.91579094 9.33482801 -3.984375 12.27734375 C-8.84276499 18.59304606 -13.72135428 24.45210124 -21.99072266 25.64941406 C-31.91904945 26.56496061 -41.97339172 25.81183339 -51.875 24.875 C-50.91770084 23.74911986 -49.95912105 22.6243285 -49 21.5 C-48.46632813 20.87351562 -47.93265625 20.24703125 -47.3828125 19.6015625 C-46.26067993 18.31663349 -45.08128025 17.08128025 -43.875 15.875 C-41.75878906 15.77832031 -41.75878906 15.77832031 -39.140625 15.953125 C-27.06744711 16.77740579 -27.06744711 16.77740579 -16.66015625 11.69921875 C-14.86928527 9.80726198 -13.21523853 7.84623425 -11.56103516 5.83447266 C-7.95030467 1.54554503 -5.9352785 -0.08961512 0 0 Z " fill="#0F55B2" transform="translate(474.875,388.125)"/>
<path d="M0 0 C4.27848238 -0.98734209 7.73386668 -1.12466474 12 0 C14.39145565 2.06605721 16.30885016 4.50114834 18.3125 6.9375 C21.37954205 10.57284167 23.98092407 13.53383788 28.73876953 14.63232422 C32.80978946 14.95808575 36.75708054 14.95934513 40.8293457 14.65209961 C47.94458111 14.2529151 47.94458111 14.2529151 51.47363281 16.75097656 C53.49270402 18.74519766 55.31654991 20.71648433 57 23 C57 23.33 57 23.66 57 24 C27.23744898 27.94144865 27.23744898 27.94144865 17.33735657 20.38957214 C10.77831907 14.75062047 4.98558206 8.05709992 0 1 C0 0.67 0 0.34 0 0 Z " fill="#0F54B1" transform="translate(320,389)"/>
<path d="M0 0 C29.76255102 -3.94144865 29.76255102 -3.94144865 39.66264343 3.61042786 C46.22168093 9.24937953 52.01441794 15.94290008 57 23 C57 23.33 57 23.66 57 24 C52.72151762 24.98734209 49.26613332 25.12466474 45 24 C42.60854435 21.93394279 40.69114984 19.49885166 38.6875 17.0625 C35.62045795 13.42715833 33.01907593 10.46616212 28.26123047 9.36767578 C24.19021054 9.04191425 20.24291946 9.04065487 16.1706543 9.34790039 C9.05541889 9.7470849 9.05541889 9.7470849 5.52636719 7.24902344 C3.50729598 5.25480234 1.68345009 3.28351567 0 1 C0 0.67 0 0.34 0 0 Z " fill="#0F55B1" transform="translate(423,140)"/>
<path d="M0 0 C3.94144865 29.76255102 3.94144865 29.76255102 -3.61042786 39.66264343 C-9.24937953 46.22168093 -15.94290008 52.01441794 -23 57 C-23.33 57 -23.66 57 -24 57 C-25.08320095 52.69126733 -25.19260762 49.30089992 -24 45 C-21.77029565 42.4427938 -19.16344481 40.3573986 -16.5625 38.1875 C-11.62115992 33.9680998 -8.63696161 30.82996982 -8.02734375 24.17578125 C-7.92974003 21.09651768 -7.99260915 18.10484317 -8.20922852 15.03198242 C-8.6236852 7.92029641 -8.6236852 7.92029641 -6.48046875 4.7578125 C-1.78953313 0 -1.78953313 0 0 0 Z " fill="#0850AF" transform="translate(536,300)"/>
<path d="M0 0 C1.14626322 0.97866338 2.29199788 1.95794587 3.4375 2.9375 C4.07558594 3.48277344 4.71367187 4.02804687 5.37109375 4.58984375 C6.26991149 5.36795695 7.15936528 6.15936528 8 7 C7.97472052 8.53525679 7.89347843 10.069652 7.7890625 11.6015625 C7.02928442 23.90419494 7.02928442 23.90419494 12.40234375 34.44140625 C14.43172639 36.36947806 16.53321284 38.16306986 18.68237305 39.95581055 C23.81450104 44.33103525 23.81450104 44.33103525 24.9921875 48.578125 C24.94407174 51.53380762 24.71949734 54.13799945 24 57 C23.02933594 56.14921875 22.05867188 55.2984375 21.05859375 54.421875 C18.33785822 52.0665091 15.54017199 49.95920906 12.59765625 47.890625 C6.28195394 43.03223501 0.42289876 38.15364572 -0.77441406 29.88427734 C-1.68996061 19.95595055 -0.93683339 9.90160828 0 0 Z " fill="#0950B0" transform="translate(264,300)"/>
<path d="M0 0 C1.45599609 1.27617187 1.45599609 1.27617187 2.94140625 2.578125 C5.66214178 4.9334909 8.45982801 7.04079094 11.40234375 9.109375 C17.71804606 13.96776499 23.57710124 18.84635428 24.77441406 27.11572266 C25.68996061 37.04404945 24.93683339 47.09839172 24 57 C22.85373678 56.02133662 21.70800212 55.04205413 20.5625 54.0625 C19.92441406 53.51722656 19.28632812 52.97195312 18.62890625 52.41015625 C17.73008851 51.63204305 16.84063472 50.84063472 16 50 C16.02527948 48.46474321 16.10652157 46.930348 16.2109375 45.3984375 C16.97071558 33.09580506 16.97071558 33.09580506 11.59765625 22.55859375 C9.56827361 20.63052194 7.46678716 18.83693014 5.31762695 17.04418945 C0.18549896 12.66896475 0.18549896 12.66896475 -0.9921875 8.421875 C-0.94407174 5.46619238 -0.71949734 2.86200055 0 0 Z " fill="#0950AF" transform="translate(512,196)"/>
<path d="M0 0 C1.08320095 4.30873267 1.19260762 7.69910008 0 12 C-2.22970435 14.5572062 -4.83655519 16.6426014 -7.4375 18.8125 C-12.37884008 23.0319002 -15.36303839 26.17003018 -15.97265625 32.82421875 C-16.07025997 35.90348232 -16.00739085 38.89515683 -15.79077148 41.96801758 C-15.3763148 49.07970359 -15.3763148 49.07970359 -17.51953125 52.2421875 C-19.26427334 54.01180371 -20.96759412 55.57195462 -23 57 C-23.33 57 -23.66 57 -24 57 C-27.94144865 27.23744898 -27.94144865 27.23744898 -20.38957214 17.33735657 C-5.48425779 0 -5.48425779 0 0 0 Z " fill="#0A51B0" transform="translate(288,196)"/>
<path d="M0 0 C-0.97866338 1.14626322 -1.95794587 2.29199788 -2.9375 3.4375 C-3.48277344 4.07558594 -4.02804687 4.71367187 -4.58984375 5.37109375 C-5.36795695 6.26991149 -6.15936528 7.15936528 -7 8 C-8.53525679 7.97472052 -10.069652 7.89347843 -11.6015625 7.7890625 C-23.90419494 7.02928442 -23.90419494 7.02928442 -34.44140625 12.40234375 C-36.36947806 14.43172639 -38.16306986 16.53321284 -39.95581055 18.68237305 C-44.33103525 23.81450104 -44.33103525 23.81450104 -48.578125 24.9921875 C-51.53380762 24.94407174 -54.13799945 24.71949734 -57 24 C-56.14921875 23.02933594 -55.2984375 22.05867188 -54.421875 21.05859375 C-52.0665091 18.33785822 -49.95920906 15.54017199 -47.890625 12.59765625 C-35.05665367 -4.08596579 -19.17787679 -1.81450072 0 0 Z " fill="#0951B0" transform="translate(377,140)"/>
<path d="M0 0 C13.53 0 27.06 0 41 0 C37.30620137 4.30943173 33.83294258 8.26678933 29.8125 12.1875 C26.93893115 14.9904435 24.31671743 17.71735479 22 21 C18.54883098 19.5155686 16.31140759 17.55666933 13.671875 14.90234375 C12.87265625 14.10119141 12.0734375 13.30003906 11.25 12.47460938 C10.425 11.63736328 9.6 10.80011719 8.75 9.9375 C7.90953125 9.09638672 7.0690625 8.25527344 6.203125 7.38867188 C0 1.14023184 0 1.14023184 0 0 Z " fill="#02979E" transform="translate(644,0)"/>
<path d="M0 0 C13.53 0 27.06 0 41 0 C37.14014297 4.50316654 33.45489554 8.63803033 29.25 12.75 C26.49699944 15.44282569 24.13702874 17.79445689 22 21 C18.54883098 19.5155686 16.31140759 17.55666933 13.671875 14.90234375 C12.87265625 14.10119141 12.0734375 13.30003906 11.25 12.47460938 C10.425 11.63736328 9.6 10.80011719 8.75 9.9375 C7.90953125 9.09638672 7.0690625 8.25527344 6.203125 7.38867188 C0 1.14023184 0 1.14023184 0 0 Z " fill="#02979E" transform="translate(740,0)"/>
<path d="M0 0 C13.53 0 27.06 0 41 0 C34.25 7.875 34.25 7.875 31.3515625 10.74609375 C30.73925781 11.35517578 30.12695312 11.96425781 29.49609375 12.59179688 C28.87863281 13.20087891 28.26117187 13.80996094 27.625 14.4375 C26.66400391 15.39172852 26.66400391 15.39172852 25.68359375 16.36523438 C24.12469121 17.91250332 22.56348584 19.45736492 21 21 C15.95179121 16.77041966 11.20353723 12.35800414 6.5625 7.6875 C5.92634766 7.05521484 5.29019531 6.42292969 4.63476562 5.77148438 C4.03470703 5.17013672 3.43464844 4.56878906 2.81640625 3.94921875 C2.27443604 3.40612061 1.73246582 2.86302246 1.17407227 2.3034668 C0 1 0 1 0 0 Z " fill="#02979E" transform="translate(692,0)"/>
<path d="M0 0 C13.53 0 27.06 0 41 0 C34.25 7.875 34.25 7.875 31.3515625 10.74609375 C30.73925781 11.35517578 30.12695312 11.96425781 29.49609375 12.59179688 C28.87863281 13.20087891 28.26117187 13.80996094 27.625 14.4375 C26.66400391 15.39172852 26.66400391 15.39172852 25.68359375 16.36523438 C24.12469121 17.91250332 22.56348584 19.45736492 21 21 C15.95179121 16.77041966 11.20353723 12.35800414 6.5625 7.6875 C5.92634766 7.05521484 5.29019531 6.42292969 4.63476562 5.77148438 C4.03470703 5.17013672 3.43464844 4.56878906 2.81640625 3.94921875 C2.27443604 3.40612061 1.73246582 2.86302246 1.17407227 2.3034668 C0 1 0 1 0 0 Z " fill="#02979E" transform="translate(596,0)"/>
<path d="M0 0 C13.53 0 27.06 0 41 0 C34.25 7.875 34.25 7.875 31.3515625 10.74609375 C30.73925781 11.35517578 30.12695312 11.96425781 29.49609375 12.59179688 C28.87863281 13.20087891 28.26117187 13.80996094 27.625 14.4375 C26.66400391 15.39172852 26.66400391 15.39172852 25.68359375 16.36523438 C24.12469121 17.91250332 22.56348584 19.45736492 21 21 C15.95179121 16.77041966 11.20353723 12.35800414 6.5625 7.6875 C5.92634766 7.05521484 5.29019531 6.42292969 4.63476562 5.77148438 C4.03470703 5.17013672 3.43464844 4.56878906 2.81640625 3.94921875 C2.27443604 3.40612061 1.73246582 2.86302246 1.17407227 2.3034668 C0 1 0 1 0 0 Z " fill="#02979E" transform="translate(548,0)"/>
<path d="M0 0 C13.53 0 27.06 0 41 0 C34.25 7.875 34.25 7.875 31.3515625 10.74609375 C30.73925781 11.35517578 30.12695312 11.96425781 29.49609375 12.59179688 C28.87863281 13.20087891 28.26117187 13.80996094 27.625 14.4375 C26.66400391 15.39172852 26.66400391 15.39172852 25.68359375 16.36523438 C24.12469121 17.91250332 22.56348584 19.45736492 21 21 C15.95179121 16.77041966 11.20353723 12.35800414 6.5625 7.6875 C5.92634766 7.05521484 5.29019531 6.42292969 4.63476562 5.77148438 C4.03470703 5.17013672 3.43464844 4.56878906 2.81640625 3.94921875 C2.27443604 3.40612061 1.73246582 2.86302246 1.17407227 2.3034668 C0 1 0 1 0 0 Z " fill="#02979E" transform="translate(500,0)"/>
<path d="M0 0 C13.53 0 27.06 0 41 0 C34.25 7.875 34.25 7.875 31.3515625 10.74609375 C30.73925781 11.35517578 30.12695312 11.96425781 29.49609375 12.59179688 C28.87863281 13.20087891 28.26117188 13.80996094 27.625 14.4375 C26.66400391 15.39172852 26.66400391 15.39172852 25.68359375 16.36523438 C24.12469121 17.91250332 22.56348584 19.45736492 21 21 C15.95179121 16.77041966 11.20353723 12.35800414 6.5625 7.6875 C5.92634766 7.05521484 5.29019531 6.42292969 4.63476562 5.77148438 C4.03470703 5.17013672 3.43464844 4.56878906 2.81640625 3.94921875 C2.27443604 3.40612061 1.73246582 2.86302246 1.17407227 2.3034668 C0 1 0 1 0 0 Z " fill="#02979E" transform="translate(452,0)"/>
<path d="M0 0 C13.53 0 27.06 0 41 0 C34.25 7.875 34.25 7.875 31.3515625 10.74609375 C30.73925781 11.35517578 30.12695312 11.96425781 29.49609375 12.59179688 C28.87863281 13.20087891 28.26117188 13.80996094 27.625 14.4375 C26.66400391 15.39172852 26.66400391 15.39172852 25.68359375 16.36523438 C24.12469121 17.91250332 22.56348584 19.45736492 21 21 C15.95179121 16.77041966 11.20353723 12.35800414 6.5625 7.6875 C5.92634766 7.05521484 5.29019531 6.42292969 4.63476562 5.77148438 C4.03470703 5.17013672 3.43464844 4.56878906 2.81640625 3.94921875 C2.27443604 3.40612061 1.73246582 2.86302246 1.17407227 2.3034668 C0 1 0 1 0 0 Z " fill="#02979E" transform="translate(404,0)"/>
<path d="M0 0 C13.53 0 27.06 0 41 0 C34.25 7.875 34.25 7.875 31.3515625 10.74609375 C30.73925781 11.35517578 30.12695312 11.96425781 29.49609375 12.59179688 C28.87863281 13.20087891 28.26117188 13.80996094 27.625 14.4375 C26.66400391 15.39172852 26.66400391 15.39172852 25.68359375 16.36523438 C24.12469121 17.91250332 22.56348584 19.45736492 21 21 C15.95179121 16.77041966 11.20353723 12.35800414 6.5625 7.6875 C5.92634766 7.05521484 5.29019531 6.42292969 4.63476562 5.77148438 C4.03470703 5.17013672 3.43464844 4.56878906 2.81640625 3.94921875 C2.27443604 3.40612061 1.73246582 2.86302246 1.17407227 2.3034668 C0 1 0 1 0 0 Z " fill="#02979E" transform="translate(356,0)"/>
<path d="M0 0 C13.53 0 27.06 0 41 0 C34.25 7.875 34.25 7.875 31.3515625 10.74609375 C30.73925781 11.35517578 30.12695312 11.96425781 29.49609375 12.59179688 C28.87863281 13.20087891 28.26117188 13.80996094 27.625 14.4375 C26.66400391 15.39172852 26.66400391 15.39172852 25.68359375 16.36523438 C24.12469121 17.91250332 22.56348584 19.45736492 21 21 C15.95179121 16.77041966 11.20353723 12.35800414 6.5625 7.6875 C5.92634766 7.05521484 5.29019531 6.42292969 4.63476562 5.77148438 C4.03470703 5.17013672 3.43464844 4.56878906 2.81640625 3.94921875 C2.27443604 3.40612061 1.73246582 2.86302246 1.17407227 2.3034668 C0 1 0 1 0 0 Z " fill="#02979E" transform="translate(308,0)"/>
<path d="M0 0 C13.53 0 27.06 0 41 0 C34.25 7.875 34.25 7.875 31.3515625 10.74609375 C30.73925781 11.35517578 30.12695312 11.96425781 29.49609375 12.59179688 C28.87863281 13.20087891 28.26117188 13.80996094 27.625 14.4375 C26.66400391 15.39172852 26.66400391 15.39172852 25.68359375 16.36523438 C24.12469121 17.91250332 22.56348584 19.45736492 21 21 C15.95179121 16.77041966 11.20353723 12.35800414 6.5625 7.6875 C5.92634766 7.05521484 5.29019531 6.42292969 4.63476562 5.77148438 C4.03470703 5.17013672 3.43464844 4.56878906 2.81640625 3.94921875 C2.27443604 3.40612061 1.73246582 2.86302246 1.17407227 2.3034668 C0 1 0 1 0 0 Z " fill="#02979E" transform="translate(260,0)"/>
<path d="M0 0 C13.53 0 27.06 0 41 0 C34.25 7.875 34.25 7.875 31.3515625 10.74609375 C30.73925781 11.35517578 30.12695312 11.96425781 29.49609375 12.59179688 C28.87863281 13.20087891 28.26117188 13.80996094 27.625 14.4375 C26.66400391 15.39172852 26.66400391 15.39172852 25.68359375 16.36523438 C24.12469121 17.91250332 22.56348584 19.45736492 21 21 C15.95179121 16.77041966 11.20353723 12.35800414 6.5625 7.6875 C5.92634766 7.05521484 5.29019531 6.42292969 4.63476562 5.77148438 C4.03470703 5.17013672 3.43464844 4.56878906 2.81640625 3.94921875 C2.27443604 3.40612061 1.73246582 2.86302246 1.17407227 2.3034668 C0 1 0 1 0 0 Z " fill="#02979E" transform="translate(212,0)"/>
<path d="M0 0 C13.53 0 27.06 0 41 0 C34.25 7.875 34.25 7.875 31.3515625 10.74609375 C30.73925781 11.35517578 30.12695312 11.96425781 29.49609375 12.59179688 C28.87863281 13.20087891 28.26117188 13.80996094 27.625 14.4375 C26.66400391 15.39172852 26.66400391 15.39172852 25.68359375 16.36523438 C24.12469121 17.91250332 22.56348584 19.45736492 21 21 C15.95179121 16.77041966 11.20353723 12.35800414 6.5625 7.6875 C5.92634766 7.05521484 5.29019531 6.42292969 4.63476562 5.77148438 C4.03470703 5.17013672 3.43464844 4.56878906 2.81640625 3.94921875 C2.27443604 3.40612061 1.73246582 2.86302246 1.17407227 2.3034668 C0 1 0 1 0 0 Z " fill="#02979E" transform="translate(164,0)"/>
<path d="M0 0 C13.53 0 27.06 0 41 0 C34.25 7.875 34.25 7.875 31.3515625 10.74609375 C30.73925781 11.35517578 30.12695312 11.96425781 29.49609375 12.59179688 C28.87863281 13.20087891 28.26117188 13.80996094 27.625 14.4375 C26.66400391 15.39172852 26.66400391 15.39172852 25.68359375 16.36523438 C24.12469121 17.91250332 22.56348584 19.45736492 21 21 C15.95179121 16.77041966 11.20353723 12.35800414 6.5625 7.6875 C5.92634766 7.05521484 5.29019531 6.42292969 4.63476562 5.77148438 C4.03470703 5.17013672 3.43464844 4.56878906 2.81640625 3.94921875 C2.27443604 3.40612061 1.73246582 2.86302246 1.17407227 2.3034668 C0 1 0 1 0 0 Z " fill="#02979E" transform="translate(116,0)"/>
<path d="M0 0 C13.53 0 27.06 0 41 0 C34.25 7.875 34.25 7.875 31.3515625 10.74609375 C30.73925781 11.35517578 30.12695312 11.96425781 29.49609375 12.59179688 C28.87863281 13.20087891 28.26117188 13.80996094 27.625 14.4375 C26.66400391 15.39172852 26.66400391 15.39172852 25.68359375 16.36523438 C24.12469121 17.91250332 22.56348584 19.45736492 21 21 C15.95179121 16.77041966 11.20353723 12.35800414 6.5625 7.6875 C5.92634766 7.05521484 5.29019531 6.42292969 4.63476562 5.77148438 C4.03470703 5.17013672 3.43464844 4.56878906 2.81640625 3.94921875 C2.27443604 3.40612061 1.73246582 2.86302246 1.17407227 2.3034668 C0 1 0 1 0 0 Z " fill="#02979E" transform="translate(68,0)"/>
<path d="M0 0 C13.53 0 27.06 0 41 0 C34.25 7.875 34.25 7.875 31.3515625 10.74609375 C30.73925781 11.35517578 30.12695312 11.96425781 29.49609375 12.59179688 C28.87863281 13.20087891 28.26117188 13.80996094 27.625 14.4375 C26.66400391 15.39172852 26.66400391 15.39172852 25.68359375 16.36523438 C24.12469121 17.91250332 22.56348584 19.45736492 21 21 C15.95179121 16.77041966 11.20353723 12.35800414 6.5625 7.6875 C5.92634766 7.05521484 5.29019531 6.42292969 4.63476562 5.77148438 C4.03470703 5.17013672 3.43464844 4.56878906 2.81640625 3.94921875 C2.27443604 3.40612061 1.73246582 2.86302246 1.17407227 2.3034668 C0 1 0 1 0 0 Z " fill="#02979E" transform="translate(20,0)"/>
<path d="M0 0 C4.60762575 0.10387562 7.23208001 1.28609464 10.75 4.375 C13.32022654 8.60571654 13.40808285 12.54905912 12.75 17.375 C11.49741208 20.96349513 9.83546032 23.64071802 6.625 25.8125 C3.83031235 26.35928671 1.40995252 26.43086675 -1.4296875 26.41015625 C-2.33187012 26.40508057 -3.23405273 26.40000488 -4.16357422 26.39477539 C-5.19635498 26.38498657 -5.19635498 26.38498657 -6.25 26.375 C-6.30785647 22.41672765 -6.34354717 18.4585633 -6.375 14.5 C-6.39175781 13.37207031 -6.40851563 12.24414062 -6.42578125 11.08203125 C-6.43222656 10.00566406 -6.43867188 8.92929687 -6.4453125 7.8203125 C-6.45578613 6.82531738 -6.46625977 5.83032227 -6.47705078 4.80517578 C-6.07174685 0.46711623 -3.8756357 0.06591217 0 0 Z " fill="#014CAE" transform="translate(354.25,251.625)"/>
<path d="M0 0 C15.18 0 30.36 0 46 0 C38.31970464 8.96034459 38.31970464 8.96034459 35.14599609 9.35400391 C31.92105097 9.46311042 28.69783572 9.55320933 25.47119141 9.59033203 C24.08405591 9.61327324 22.69709022 9.65402807 21.31103516 9.71337891 C9.8467002 10.20419832 9.8467002 10.20419832 5.25488281 7.20996094 C3.25497451 5.23649479 1.55041827 3.34033667 0 1 C0 0.67 0 0.34 0 0 Z " fill="#1A5CB5" transform="translate(377,404)"/>
<path d="M0 0 C1.38713549 -0.02294121 2.77410118 -0.06369604 4.16015625 -0.12304688 C15.6244912 -0.61386629 15.6244912 -0.61386629 20.21630859 2.38037109 C22.2162169 4.35383724 23.92077313 6.24999537 25.47119141 8.59033203 C25.47119141 8.92033203 25.47119141 9.25033203 25.47119141 9.59033203 C10.29119141 9.59033203 -4.88880859 9.59033203 -20.52880859 9.59033203 C-12.61534973 0.35796336 -11.48774871 0.1321671 0 0 Z " fill="#1A5CB5" transform="translate(397.52880859375,139.40966796875)"/>
<path d="M0 0 C0.78130963 5.39877919 1.1489138 10.04244304 -1.68164062 14.86523438 C-4.065048 17.67900765 -6.57479342 20.21276969 -9.25 22.75 C-10.10335938 23.64976562 -10.95671875 24.54953125 -11.8359375 25.4765625 C-16.6302479 30.18500465 -19.80628168 32.56601637 -26.671875 32.578125 C-28.45235161 32.43196226 -30.23195294 32.25587122 -32 32 C-26.71120198 25.52756334 -20.83581643 19.68353602 -14.92114258 13.79077148 C-13.17085124 12.04590282 -11.42604674 10.29567217 -9.68164062 8.54492188 C-8.57323772 7.43717867 -7.46452524 6.3297451 -6.35546875 5.22265625 C-5.83260788 4.69777115 -5.30974701 4.17288605 -4.77104187 3.63209534 C-1.114991 0 -1.114991 0 0 0 Z " fill="#0C52B0" transform="translate(507,351)"/>
<path d="M0 0 C6.47243666 5.28879802 12.31646398 11.16418357 18.20922852 17.07885742 C19.95409718 18.82914876 21.70432783 20.57395326 23.45507812 22.31835938 C24.56282133 23.42676228 25.6702549 24.53547476 26.77734375 25.64453125 C27.30222885 26.16739212 27.82711395 26.69025299 28.36790466 27.22895813 C32 30.885009 32 30.885009 32 32 C26.60122081 32.78130963 21.95755696 33.1489138 17.13476562 30.31835938 C14.32099235 27.934952 11.78723031 25.42520658 9.25 22.75 C8.35023438 21.89664062 7.45046875 21.04328125 6.5234375 20.1640625 C1.81499535 15.3697521 -0.56601637 12.19371832 -0.578125 5.328125 C-0.43196226 3.54764839 -0.25587122 1.76804706 0 0 Z " fill="#0C52B0" transform="translate(293,351)"/>
<path d="M0 0 C5.39877919 -0.78130963 10.04244304 -1.1489138 14.86523438 1.68164062 C17.67900765 4.065048 20.21276969 6.57479342 22.75 9.25 C23.64976562 10.10335937 24.54953125 10.95671875 25.4765625 11.8359375 C30.18500465 16.6302479 32.56601637 19.80628168 32.578125 26.671875 C32.43196226 28.45235161 32.25587122 30.23195294 32 32 C25.52756334 26.71120198 19.68353602 20.83581643 13.79077148 14.92114258 C12.04590282 13.17085124 10.29567217 11.42604674 8.54492188 9.68164062 C7.43717867 8.57323772 6.3297451 7.46452524 5.22265625 6.35546875 C4.4353286 5.57117744 4.4353286 5.57117744 3.63209534 4.77104187 C0 1.114991 0 1.114991 0 0 Z " fill="#0D53B1" transform="translate(475,170)"/>
<path d="M0 0 C-5.28879802 6.47243666 -11.16418357 12.31646398 -17.07885742 18.20922852 C-18.82914876 19.95409718 -20.57395326 21.70432783 -22.31835938 23.45507812 C-23.42676228 24.56282133 -24.53547476 25.6702549 -25.64453125 26.77734375 C-26.16739212 27.30222885 -26.69025299 27.82711395 -27.22895813 28.36790466 C-30.885009 32 -30.885009 32 -32 32 C-32.78130963 26.60122081 -33.1489138 21.95755696 -30.31835938 17.13476562 C-27.934952 14.32099235 -25.42520658 11.78723031 -22.75 9.25 C-21.89664062 8.35023438 -21.04328125 7.45046875 -20.1640625 6.5234375 C-13.69355273 0.16881746 -8.9744711 -1.29878265 0 0 Z " fill="#0D53B1" transform="translate(325,170)"/>
<path d="M0 0 C7.98791731 6.84678627 7.98791731 6.84678627 8.22460938 9.84814453 C8.33047197 13.21101751 8.41302706 16.57144763 8.45996094 19.93554688 C8.48646338 21.38477822 8.52727483 22.83382479 8.58300781 24.28222656 C9.03979664 36.29632317 9.03979664 36.29632317 6.44140625 40.55371094 C4.71200025 42.30875741 3.10636719 43.72788187 1 45 C0.67 45 0.34 45 0 45 C0 30.15 0 15.3 0 0 Z " fill="#064EAF" transform="translate(528,254)"/>
<path d="M0 0 C0 14.85 0 29.7 0 45 C-7.98791731 38.15321373 -7.98791731 38.15321373 -8.22460938 35.15185547 C-8.33047197 31.78898249 -8.41302706 28.42855237 -8.45996094 25.06445312 C-8.48646338 23.61522178 -8.52727483 22.16617521 -8.58300781 20.71777344 C-9.03979664 8.70367683 -9.03979664 8.70367683 -6.44140625 4.44628906 C-2.06007557 0 -2.06007557 0 0 0 Z " fill="#084FAF" transform="translate(272,254)"/>
<path d="M0 0 C1.90845703 0.04060547 1.90845703 0.04060547 3.85546875 0.08203125 C5.31919922 0.13423828 5.31919922 0.13423828 6.8125 0.1875 C5.87659496 1.2930189 4.93870142 2.39685453 4 3.5 C3.47792969 4.11488281 2.95585937 4.72976563 2.41796875 5.36328125 C1.88816406 5.96527344 1.35835938 6.56726563 0.8125 7.1875 C0.4 7.7546875 -0.0125 8.321875 -0.4375 8.90625 C-3.25895654 10.97195925 -5.95716595 10.46906883 -9.375 10.375 C-10.64730469 10.34792969 -11.91960937 10.32085937 -13.23046875 10.29296875 C-14.20628906 10.25816406 -15.18210937 10.22335937 -16.1875 10.1875 C-15.25159496 9.0819811 -14.31370142 7.97814547 -13.375 6.875 C-12.85292969 6.26011719 -12.33085937 5.64523437 -11.79296875 5.01171875 C-11.26316406 4.40972656 -10.73335938 3.80773437 -10.1875 3.1875 C-9.775 2.6203125 -9.3625 2.053125 -8.9375 1.46875 C-6.11604346 -0.59695925 -3.41783405 -0.09406883 0 0 Z " fill="#0B52B0" transform="translate(453.1875,388.8125)"/>
<path d="M0 0 C11.94857676 -1.37672079 11.94857676 -1.37672079 16.93359375 1.96875 C23 8.1031 23 8.1031 23 10 C11.05142324 11.37672079 11.05142324 11.37672079 6.06640625 8.03125 C0 1.8969 0 1.8969 0 0 Z " fill="#0B52B0" transform="translate(340,389)"/>
<path d="M0 0 C1.37672079 11.94857676 1.37672079 11.94857676 -1.96875 16.93359375 C-8.1031 23 -8.1031 23 -10 23 C-11.37672079 11.05142324 -11.37672079 11.05142324 -8.03125 6.06640625 C-1.8969 0 -1.8969 0 0 0 Z " fill="#1156B2" transform="translate(522,314)"/>
<path d="M0 0 C1.1055189 0.93590504 2.20935453 1.87379858 3.3125 2.8125 C3.92738281 3.33457031 4.54226563 3.85664063 5.17578125 4.39453125 C5.77777344 4.92433594 6.37976563 5.45414062 7 6 C7.5671875 6.4125 8.134375 6.825 8.71875 7.25 C10.78445925 10.07145654 10.28156883 12.76966595 10.1875 16.1875 C10.16042969 17.45980469 10.13335937 18.73210937 10.10546875 20.04296875 C10.07066406 21.01878906 10.03585937 21.99460937 10 23 C8.8944811 22.06409496 7.79064547 21.12620142 6.6875 20.1875 C6.07261719 19.66542969 5.45773437 19.14335937 4.82421875 18.60546875 C4.22222656 18.07566406 3.62023437 17.54585938 3 17 C2.4328125 16.5875 1.865625 16.175 1.28125 15.75 C-0.78445925 12.92854346 -0.28156883 10.23033405 -0.1875 6.8125 C-0.16042969 5.54019531 -0.13335937 4.26789063 -0.10546875 2.95703125 C-0.07066406 1.98121094 -0.03585937 1.00539063 0 0 Z " fill="#1357B3" transform="translate(278,314)"/>
<path d="M0 0 C1.1055189 0.93590504 2.20935453 1.87379858 3.3125 2.8125 C3.92738281 3.33457031 4.54226563 3.85664063 5.17578125 4.39453125 C5.77777344 4.92433594 6.37976563 5.45414063 7 6 C7.5671875 6.4125 8.134375 6.825 8.71875 7.25 C10.78445925 10.07145654 10.28156883 12.76966595 10.1875 16.1875 C10.16042969 17.45980469 10.13335938 18.73210937 10.10546875 20.04296875 C10.07066406 21.01878906 10.03585937 21.99460938 10 23 C8.8944811 22.06409496 7.79064547 21.12620142 6.6875 20.1875 C6.07261719 19.66542969 5.45773437 19.14335937 4.82421875 18.60546875 C4.22222656 18.07566406 3.62023437 17.54585937 3 17 C2.4328125 16.5875 1.865625 16.175 1.28125 15.75 C-0.78445925 12.92854346 -0.28156883 10.23033405 -0.1875 6.8125 C-0.16042969 5.54019531 -0.13335937 4.26789063 -0.10546875 2.95703125 C-0.07066406 1.98121094 -0.03585937 1.00539062 0 0 Z " fill="#0F55B2" transform="translate(512,216)"/>
<path d="M0 0 C1.37672079 11.94857676 1.37672079 11.94857676 -1.96875 16.93359375 C-8.1031 23 -8.1031 23 -10 23 C-11.37672079 11.05142324 -11.37672079 11.05142324 -8.03125 6.06640625 C-1.8969 0 -1.8969 0 0 0 Z " fill="#1056B2" transform="translate(288,216)"/>
<path d="M0 0 C11.94857676 -1.37672079 11.94857676 -1.37672079 16.93359375 1.96875 C23 8.1031 23 8.1031 23 10 C11.05142324 11.37672079 11.05142324 11.37672079 6.06640625 8.03125 C0 1.8969 0 1.8969 0 0 Z " fill="#0B52B0" transform="translate(437,154)"/>
<path d="M0 0 C1.90845703 0.04060547 1.90845703 0.04060547 3.85546875 0.08203125 C5.31919922 0.13423828 5.31919922 0.13423828 6.8125 0.1875 C5.87659496 1.2930189 4.93870142 2.39685453 4 3.5 C3.47792969 4.11488281 2.95585937 4.72976562 2.41796875 5.36328125 C1.88816406 5.96527344 1.35835938 6.56726563 0.8125 7.1875 C0.4 7.7546875 -0.0125 8.321875 -0.4375 8.90625 C-3.25895654 10.97195925 -5.95716595 10.46906883 -9.375 10.375 C-10.64730469 10.34792969 -11.91960937 10.32085937 -13.23046875 10.29296875 C-14.20628906 10.25816406 -15.18210937 10.22335938 -16.1875 10.1875 C-15.25159496 9.0819811 -14.31370142 7.97814547 -13.375 6.875 C-12.85292969 6.26011719 -12.33085937 5.64523438 -11.79296875 5.01171875 C-11.26316406 4.40972656 -10.73335938 3.80773437 -10.1875 3.1875 C-9.775 2.6203125 -9.3625 2.053125 -8.9375 1.46875 C-6.11604346 -0.59695925 -3.41783405 -0.09406883 0 0 Z " fill="#0B52B0" transform="translate(356.1875,153.8125)"/>
<path d="M0 0 C4.29 0 8.58 0 13 0 C8.98528179 4.89599781 4.89599781 8.98528179 0 13 C0 8.71 0 4.42 0 0 Z " fill="#02979D" transform="translate(0,0)"/>
<path d="M0 0 C5.94 0 11.88 0 18 0 C12.10714286 7.23214286 12.10714286 7.23214286 8 9 C6.66368764 7.6905332 5.33102075 6.37734515 4 5.0625 C3.2575 4.33160156 2.515 3.60070312 1.75 2.84765625 C0 1 0 1 0 0 Z " fill="#2665B9" transform="translate(391,418)"/>
<path d="M0 0 C0 5.61 0 11.22 0 17 C-6.75 11.375 -6.75 11.375 -9 8 C-7.6905332 6.66368764 -6.37734515 5.33102075 -5.0625 4 C-3.96615234 2.88625 -3.96615234 2.88625 -2.84765625 1.75 C-1 0 -1 0 0 0 Z " fill="#195BB5" transform="translate(258,268)"/>
<path d="M0 0 C6.6943734 5.35549872 6.6943734 5.35549872 7.93359375 7.96875 C8 10 8 10 6.6015625 11.921875 C5.94929687 12.52515625 5.29703125 13.1284375 4.625 13.75 C3.65433594 14.67039062 3.65433594 14.67039062 2.6640625 15.609375 C1 17 1 17 0 17 C0 11.39 0 5.78 0 0 Z " fill="#175BB4" transform="translate(542,268)"/>
<path d="M0 0 C0 3.96 0 7.92 0 12 C-3.96 12 -7.92 12 -12 12 C-1.88235294 0 -1.88235294 0 0 0 Z " fill="#1559B3" transform="translate(507,371)"/>
<path d="M0 0 C4.53287116 3.73295272 8.37382288 7.38486548 12 12 C8.04 12 4.08 12 0 12 C0 8.04 0 4.08 0 0 Z " fill="#1458B3" transform="translate(293,371)"/>
<path d="M0 0 C3.96 0 7.92 0 12 0 C12 3.96 12 7.92 12 12 C7.46712884 8.26704728 3.62617712 4.61513452 0 0 Z " fill="#1659B4" transform="translate(495,170)"/>
<path d="M0 0 C3.96 0 7.92 0 12 0 C8.26704728 4.53287116 4.61513452 8.37382288 0 12 C0 8.04 0 4.08 0 0 Z " fill="#195BB5" transform="translate(293,170)"/>
<path d="M0 0 C3.96 0 7.92 0 12 0 C12 3.96 12 7.92 12 12 C7.46712884 8.26704728 3.62617712 4.61513452 0 0 Z " fill="#02969E" transform="translate(788,0)"/>
<path d="M0 0 C4.63268926 1.71581084 5.37625207 3.65150248 9 8 C3.72 8 -1.56 8 -7 8 C-1.125 1.125 -1.125 1.125 0 0 Z " fill="#0F54B1" transform="translate(399,126)"/>
</svg>
